<svg width="48" height="48" viewBox="0 0 100 100" version="1.1" xmlns="http://www.w3.org/2000/svg">
    <rect x="0" y="0" width="100" height="100" rx="12" fill="#171718" />

    <g fill="#33CCFF">
        <rect x="24" y="22" width="10" height="10" rx="2" />
        <rect x="24" y="42" width="10" height="10" rx="2" />

        <path d="M42,16 h20 a4,4 0 0 1 4,4 v34 a4,4 0 0 1 -4,4 h-20 a4,4 0 0 1 -4,-4 v-34 a4,4 0 0 1 4,-4 z M48,24 v20 h8 v-20 z" fill-rule="evenodd"/>

        <path d="M70,16 h20 a4,4 0 0 1 4,4 v34 a4,4 0 0 1 -4,4 h-20 a4,4 0 0 1 -4,-4 v-34 a4,4 0 0 1 4,-4 z M76,24 v20 h8 v-20 z" fill-rule="evenodd"/>
    </g>

    <text x="50" y="88" font-family="Arial Black, Arial, sans-serif" font-weight="900" font-size="22" text-anchor="middle" fill="#FFFFFF">SMPTE</text>
</svg>