<svg width="48" height="48" viewBox="0 0 100 100" version="1.1" xmlns="http://www.w3.org/2000/svg">
    <rect x="0" y="0" width="100" height="100" rx="12" fill="#171718" />

    <g fill="#33CCFF">
        <rect x="10" y="25" width="14" height="14" rx="2" />
        <rect x="10" y="60" width="14" height="14" rx="2" />

        <path d="M32,20 h26 a4,4 0 0 1 4,4 v52 a4,4 0 0 1 -4,4 h-26 a4,4 0 0 1 -4,-4 v-52 a4,4 0 0 1 4,-4 z M40,32 v30 h10 v-30 z" fill-rule="evenodd"/>

        <path d="M66,20 h26 a4,4 0 0 1 4,4 v52 a4,4 0 0 1 -4,4 h-26 a4,4 0 0 1 -4,-4 v-52 a4,4 0 0 1 4,-4 z M74,32 v30 h10 v-30 z" fill-rule="evenodd"/>
    </g>
</svg>